<svg width="32" height="32" viewBox="0 0 32 32" fill="none" xmlns="http://www.w3.org/2000/svg">
  <circle cx="16" cy="16" r="16" fill="#fff"/>
  <g>
    <path d="M16 6C10.477 6 6 10.477 6 16C6 21.523 10.477 26 16 26C21.523 26 26 21.523 26 16C26 10.477 21.523 6 16 6ZM16 24C11.589 24 8 20.411 8 16C8 11.589 11.589 8 16 8C20.411 8 24 11.589 24 16C24 20.411 20.411 24 16 24Z" fill="#F26207"/>
    <path d="M16 10C13.243 10 11 12.243 11 15C11 17.757 13.243 20 16 20C18.757 20 21 17.757 21 15C21 12.243 18.757 10 16 10ZM16 18C14.346 18 13 16.654 13 15C13 13.346 14.346 12 16 12C17.654 12 19 13.346 19 15C19 16.654 17.654 18 16 18Z" fill="#F26207"/>
  </g>
</svg> 